<mxfile host="app.diagrams.net" modified="2022-05-25T07:02:24.011Z" agent="5.0 (Windows NT 10.0; Win64; x64) AppleWebKit/537.36 (KHTML, like Gecko) Chrome/101.0.0.0 Safari/537.36" etag="c0aBS2MD756nC2c2Z-iv" version="18.1.2" type="github">
  <diagram name="Page-1" id="3e8102d1-ef87-2e61-34e1-82d9a586fe2e">
    <mxGraphModel dx="1221" dy="644" grid="1" gridSize="10" guides="1" tooltips="1" connect="1" arrows="1" fold="1" page="1" pageScale="1" pageWidth="1100" pageHeight="850" background="none" math="0" shadow="0">
      <root>
        <mxCell id="0" />
        <mxCell id="1" parent="0" />
        <mxCell id="jRRDvP25dzIbIZM5kSKz-3" value="" style="verticalLabelPosition=bottom;sketch=0;html=1;fillColor=#7EA6E0;strokeColor=#51A637;verticalAlign=top;pointerEvents=1;align=center;shape=mxgraph.cisco_safe.people_places_things_icons.icon2;" vertex="1" parent="1">
          <mxGeometry x="290" y="180" width="70" height="60" as="geometry" />
        </mxCell>
        <mxCell id="jRRDvP25dzIbIZM5kSKz-4" value="" style="shadow=0;dashed=0;html=1;strokeColor=#FFFFFF;fillColor=#7EA6E0;labelPosition=center;verticalLabelPosition=bottom;verticalAlign=top;align=center;outlineConnect=0;shape=mxgraph.veeam.portal_admin;" vertex="1" parent="1">
          <mxGeometry x="520" y="182.6" width="60" height="54.8" as="geometry" />
        </mxCell>
        <mxCell id="jRRDvP25dzIbIZM5kSKz-5" value="" style="shape=image;html=1;verticalAlign=top;verticalLabelPosition=bottom;labelBackgroundColor=#ffffff;imageAspect=0;aspect=fixed;image=https://cdn0.iconfinder.com/data/icons/ie_Financial_set/128/21.png;strokeColor=#FFFFFF;fillColor=#7EA6E0;" vertex="1" parent="1">
          <mxGeometry x="740" y="168" width="84" height="84" as="geometry" />
        </mxCell>
        <mxCell id="jRRDvP25dzIbIZM5kSKz-6" value="" style="shape=rect;strokeColor=none;fillColor=#ffffff;gradientColor=none;shadow=0;sketch=1;hachureGap=4;pointerEvents=0;fontFamily=Architects Daughter;fontSource=https%3A%2F%2Ffonts.googleapis.com%2Fcss%3Ffamily%3DArchitects%2BDaughter;fontSize=20;fontColor=#FFFFFF;" vertex="1" parent="1">
          <mxGeometry x="460" y="252" width="170" height="100" as="geometry" />
        </mxCell>
        <mxCell id="jRRDvP25dzIbIZM5kSKz-11" value="" style="rounded=0;whiteSpace=wrap;html=1;strokeColor=#FFFFFF;fillColor=#7EA6E0;" vertex="1" parent="jRRDvP25dzIbIZM5kSKz-6">
          <mxGeometry width="170" height="100" as="geometry" />
        </mxCell>
        <mxCell id="jRRDvP25dzIbIZM5kSKz-7" value="Saturday 10:12 AM" style="shape=text;align=center;verticalAlign=middle;fontSize=5;spacingTop=3;resizeWidth=1;sketch=1;hachureGap=4;pointerEvents=0;fontFamily=Architects Daughter;fontSource=https%3A%2F%2Ffonts.googleapis.com%2Fcss%3Ffamily%3DArchitects%2BDaughter;fillColor=none;fontColor=#FFFFFF;strokeColor=none;" vertex="1" parent="jRRDvP25dzIbIZM5kSKz-6">
          <mxGeometry width="164" height="10" relative="1" as="geometry">
            <mxPoint as="offset" />
          </mxGeometry>
        </mxCell>
        <mxCell id="jRRDvP25dzIbIZM5kSKz-8" value="Hi MIn, apakah bisa melaksanakan magang pada tanggal ini?" style="html=1;strokeWidth=1;shadow=0;dashed=0;shape=mxgraph.ios7ui.callout;strokeColor=none;fillColor=#E7E6EC;align=left;verticalAlign=middle;fontSize=7;spacingLeft=17;fontColor=#000000;spacingTop=2;whiteSpace=wrap;resizeWidth=1;sketch=0;hachureGap=4;pointerEvents=0;fontFamily=Architects Daughter;fontSource=https%3A%2F%2Ffonts.googleapis.com%2Fcss%3Ffamily%3DArchitects%2BDaughter;" vertex="1" parent="jRRDvP25dzIbIZM5kSKz-6">
          <mxGeometry width="90" height="30" relative="1" as="geometry">
            <mxPoint x="5" y="15" as="offset" />
          </mxGeometry>
        </mxCell>
        <mxCell id="jRRDvP25dzIbIZM5kSKz-9" value="Selamat siang kak.. bisa kak :)" style="html=1;strokeWidth=1;shadow=0;dashed=0;shape=mxgraph.ios7ui.callout;strokeColor=none;fillColor=#0680FF;flipH=1;align=left;verticalAlign=top;fontSize=7;spacingLeft=2;fontColor=#ffffff;spacingTop=-2;whiteSpace=wrap;spacingRight=12;resizeWidth=1;sketch=0;hachureGap=4;pointerEvents=0;fontFamily=Architects Daughter;fontSource=https%3A%2F%2Ffonts.googleapis.com%2Fcss%3Ffamily%3DArchitects%2BDaughter;" vertex="1" parent="jRRDvP25dzIbIZM5kSKz-6">
          <mxGeometry x="0.35" width="100" height="25" relative="1" as="geometry">
            <mxPoint y="50" as="offset" />
          </mxGeometry>
        </mxCell>
        <mxCell id="jRRDvP25dzIbIZM5kSKz-10" value="Read Friday" style="shape=text;align=right;verticalAlign=middle;fontSize=5;fontColor=#FFFFFF;strokeColor=none;fillColor=none;spacingTop=3;resizeWidth=1;sketch=1;hachureGap=4;pointerEvents=0;fontFamily=Architects Daughter;fontSource=https%3A%2F%2Ffonts.googleapis.com%2Fcss%3Ffamily%3DArchitects%2BDaughter;" vertex="1" parent="jRRDvP25dzIbIZM5kSKz-6">
          <mxGeometry width="164" height="10" relative="1" as="geometry">
            <mxPoint y="80" as="offset" />
          </mxGeometry>
        </mxCell>
        <mxCell id="jRRDvP25dzIbIZM5kSKz-12" value="" style="shape=image;html=1;verticalAlign=top;verticalLabelPosition=bottom;labelBackgroundColor=#ffffff;imageAspect=0;aspect=fixed;image=https://cdn3.iconfinder.com/data/icons/2018-social-media-logotypes/1000/2018_social_media_popular_app_logo_instagram-128.png;fontColor=#FFFFFF;strokeColor=#FFFFFF;fillColor=none;" vertex="1" parent="jRRDvP25dzIbIZM5kSKz-6">
          <mxGeometry x="-10" y="-12" width="20" height="20" as="geometry" />
        </mxCell>
        <mxCell id="jRRDvP25dzIbIZM5kSKz-13" value="&lt;font&gt;DM Instagram untuk Konfirmasi&lt;/font&gt;" style="text;html=1;resizable=0;autosize=1;align=center;verticalAlign=middle;points=[];fillColor=#009900;strokeColor=default;rounded=0;fontColor=#FFFFFF;" vertex="1" parent="1">
          <mxGeometry x="455" y="360" width="180" height="20" as="geometry" />
        </mxCell>
        <mxCell id="jRRDvP25dzIbIZM5kSKz-14" value="" style="sketch=0;html=1;aspect=fixed;strokeColor=none;shadow=0;align=center;verticalAlign=top;fillColor=#3B8DF1;shape=mxgraph.gcp2.check;fontColor=#FFFFFF;" vertex="1" parent="1">
          <mxGeometry x="420" y="340" width="50" height="40" as="geometry" />
        </mxCell>
      </root>
    </mxGraphModel>
  </diagram>
</mxfile>
